<?xml version="1.0" standalone="no"?><!DOCTYPE svg PUBLIC "-//W3C//DTD SVG 1.1//EN" "http://www.w3.org/Graphics/SVG/1.1/DTD/svg11.dtd"><svg t="1562492144272" class="icon" viewBox="0 0 1024 1024" version="1.1" xmlns="http://www.w3.org/2000/svg" p-id="7394" xmlns:xlink="http://www.w3.org/1999/xlink" width="128" height="128"><defs><style type="text/css"></style></defs><path d="M831.6 277.9H503.7l-42.8-90c-6.8-14.7-21.5-24-37.7-23.9H105.4c-11 0-21.5 4.4-29.2 12.1-7.8 7.8-12.1 18.3-12.1 29.2v589.1c0 17.1 6.8 33.5 18.9 45.7 12 12.1 28.5 18.9 45.6 18.9h703.8c17.1 0 33.5-6.8 45.7-18.9 12.1-12.1 18.9-28.5 18.9-45.7v-452c0-17.3-6.9-33.8-19.2-45.9a64.76 64.76 0 0 0-46.2-18.6zM538.5 695.8H421V608h-92.1l150.9-186.5 150.9 187.2h-92.1v87.1z m0 0" p-id="7395" fill="#666666"></path></svg>